PathFileType	4	(X/Y/Z)	Walk9.trc
DataRate	CameraRate	NumFrames	NumMarkers	Units	OrigDataRate	OrigDataStartFrame	OrigNumFrames
200.000000	200.000000	4	59	mm	200.000000	519	603
Frame#	Times		LFHD		RFHD		RASI		RACR1		RUA1		RFA1		RWRR		RCAR		LACR1		LUA1		LElbow		LWRU		RTH2		RMT5		LTH3		LLFC		LTB1		LMT1		LTB4		LMT5		RLFC		LTB2		CLAV		LTB3		LToe		STRN		LFA1		LTH2		LTH4		LLMAL		RBHD		RTH3		LASI		LTH1		RMT1		RBack		RElbowM		C7		LPSI		LCAR		LBHD		RToe		RPSI		RCAL		RElbow		RTH4		RLMAL		RTH1		RTB2		RTB3		RTB4		LWRR		RTB1		RMMAL		LMMAL		T10		RWRU		LCAL		LElbowM
			X1	Y1	Z1	X2	Y2	Z2	X3	Y3	Z3	X4	Y4	Z4	X5	Y5	Z5	X6	Y6	Z6	X7	Y7	Z7	X8	Y8	Z8	X9	Y9	Z9	X10	Y10	Z10	X11	Y11	Z11	X12	Y12	Z12	X13	Y13	Z13	X14	Y14	Z14	X15	Y15	Z15	X16	Y16	Z16	X17	Y17	Z17	X18	Y18	Z18	X19	Y19	Z19	X20	Y20	Z20	X21	Y21	Z21	X22	Y22	Z22	X23	Y23	Z23	X24	Y24	Z24	X25	Y25	Z25	X26	Y26	Z26	X27	Y27	Z27	X28	Y28	Z28	X29	Y29	Z29	X30	Y30	Z30	X31	Y31	Z31	X32	Y32	Z32	X33	Y33	Z33	X34	Y34	Z34	X35	Y35	Z35	X36	Y36	Z36	X37	Y37	Z37	X38	Y38	Z38	X39	Y39	Z39	X40	Y40	Z40	X41	Y41	Z41	X42	Y42	Z42	X43	Y43	Z43	X44	Y44	Z44	X45	Y45	Z45	X46	Y46	Z46	X47	Y47	Z47	X48	Y48	Z48	X49	Y49	Z49	X50	Y50	Z50	X51	Y51	Z51	X52	Y52	Z52	X53	Y53	Z53	X54	Y54	Z54	X55	Y55	Z55	X56	Y56	Z56	X57	Y57	Z57	X58	Y58	Z58	X59	Y59	Z59

519	2.595	753.94	1558.5	-37.128	754.07	1558.7	60.989	688.35	949.13	189.56	608.93	1370	183.89	576.6	1229.5	276.79	622.21	948.53	335.44	619.46	846.55	373.67	659.14	792.7	354.12	624.39	1345.3	-173.91	587.69	1198.3	-244.09	503.43	1069.2	-270.15	449.43	834.38	-331.14	635.87	615.32	210.78	365.7	31.237	170.9	734.69	564.24	-152.28	731.29	489.72	-134.03	766.07	336.89	-32.79	852.33	36.303	-25.03	758.24	251.97	-40.463	838.44	26.042	-115.86	544.7	450.03	201.92	762.2	256.99	-102.39	690.47	1328.7	9.5397	757.39	166.26	-45.041	894.02	31.66	-23.451	753.14	1212.1	21.36	514.22	937.19	-305.66	770.34	663.34	-145.37	722.92	647.71	-179.36	720.55	69.496	-111.57	584.2	1570.5	69.829	562.72	539.73	210.44	712.62	955.41	-156.5	713.65	728.9	-204.01	382.33	41.415	83.933	470.6	1306.4	109.37	504.15	1047.5	243.86	530.89	1408.1	13.14	470.35	972.22	-95.771	468.6	776.68	-333.49	601.33	1557.1	-64.199	419.46	28.066	90.792	445.38	970.67	37.197	237.81	143.72	129.45	544.12	1069.7	324.57	578.04	624.25	225.48	299.2	138.23	175.49	605.56	703.28	238.51	460.44	282.43	188.14	412.31	205.82	128.26	479.76	196.75	201.25	501.58	814.83	-282.09	536.01	326.63	126.17	323.59	139.67	92.534	726.72	72.413	-27.401	479.57	1075.9	-1.5968	645.51	843.75	303.74	664.71	29.489	-74.325	502.17	1032.6	-167.34
520	2.6	758.56	1559.1	-38.328	758.5	1559.4	59.795	693.19	950.73	188.37	613.08	1371.1	182.52	580.03	1230.7	275.43	624.24	949.07	333.75	620.72	847.02	371.98	659.95	792.76	352.33	628.98	1346.1	-175.09	593.09	1198.8	-245.12	509.29	1069.5	-271.2	456.46	834.32	-332.01	642.62	616.19	211.34	368	32.757	171.04	737.14	564.51	-153.2	733.07	489.81	-134.85	767.54	336.82	-33.587	852.28	36.328	-25.059	759.12	251.96	-41.026	838.47	26.04	-115.98	553.01	450.34	202.93	763.08	256.8	-102.97	694.86	1329.6	8.2918	757.79	166.22	-45.321	894.03	31.544	-23.472	757.57	1213.3	19.808	520.7	937.41	-306.4	773.61	663.36	-146.59	725.88	648.03	-180.33	720.64	69.458	-111.75	588.64	1571.4	68.306	570.2	539.94	211.06	717.21	956.69	-157.21	717.16	729.24	-205.11	384.3	42.291	84.279	474.81	1307.4	108	507.37	1048.9	241.55	535.27	1408.9	11.714	474.87	972.93	-96.011	475.75	776.61	-334.02	606.01	1557.9	-65.672	420.75	28.046	91.114	449.94	971.21	36.875	243.12	149.11	129.96	546.84	1070.7	322.71	584.63	624.72	225.85	304.22	141.96	175.99	611.21	704.08	238.64	467.17	283.82	189.03	418.29	207.91	128.81	486.87	200.98	198.87	508.23	815.01	-282.52	543.76	326.89	127.13	328.68	142.93	93.11	726.69	72.557	-27.634	484.07	1076.6	-2.3097	646.9	844.12	302.07	664.68	29.474	-74.506	507.73	1033.1	-168.34
521	2.605	763.16	1559.7	-39.488	762.92	1560	58.641	697.97	952.32	187.31	617.17	1372.2	181.17	583.47	1231.9	274.12	626.26	949.61	332.09	621.96	847.49	370.3	660.73	792.82	350.53	633.55	1346.9	-176.25	598.48	1199.4	-246.14	515.15	1069.7	-272.26	463.63	834.24	-332.91	649.39	617.08	211.91	370.66	34.498	171.28	739.46	564.75	-154.03	734.6	489.88	-135.67	768.89	336.75	-34.376	852.22	36.372	-25.093	759.92	251.96	-41.596	838.48	26.043	-116.09	561.42	450.66	203.93	763.84	256.61	-103.56	699.24	1330.6	7.0804	758.16	166.19	-45.62	894.02	31.484	-23.502	761.99	1214.5	18.297	527.26	937.66	-307.16	776.73	663.34	-147.82	728.67	648.29	-181.26	720.69	69.419	-111.91	593.07	1572.4	66.83	577.76	540.13	211.69	721.77	957.98	-157.87	720.5	729.48	-206.24	386.68	43.284	84.75	478.99	1308.5	106.62	510.58	1050.2	239.28	539.62	1409.7	10.294	479.35	973.66	-96.234	483.08	776.55	-334.58	610.68	1558.7	-67.1	422.45	28.054	91.605	454.47	971.75	36.572	248.68	154.39	130.41	549.54	1071.7	320.89	591.24	625.18	226.26	309.48	145.7	176.43	616.86	704.87	238.8	474.05	285.22	189.87	424.45	210.03	129.31	494.09	205.66	196.03	515.06	815.22	-282.99	551.56	327.2	128.12	333.99	146.17	93.621	726.66	72.689	-27.856	488.55	1077.2	-2.995	648.27	844.49	300.41	664.65	29.451	-74.676	513.26	1033.7	-169.35
522	2.61	767.75	1560.3	-40.607	767.34	1560.7	57.529	702.69	953.89	186.37	621.22	1373.2	179.86	586.89	1233	272.85	628.26	950.15	330.45	623.18	847.96	368.64	661.47	792.86	348.73	638.11	1347.8	-177.38	603.89	1200.1	-247.17	521.01	1070	-273.34	470.94	834.14	-333.83	656.18	617.99	212.48	373.72	36.453	171.65	741.64	564.96	-154.76	735.93	489.94	-136.49	770.1	336.69	-35.138	852.16	36.428	-25.127	760.65	251.96	-42.16	838.48	26.045	-116.18	569.91	451	204.91	764.49	256.44	-104.14	703.59	1331.5	5.9066	758.51	166.17	-45.93	894	31.463	-23.539	766.39	1215.8	16.831	533.9	937.91	-307.93	779.71	663.28	-149.05	731.31	648.49	-182.14	720.72	69.38	-112.07	597.48	1573.3	65.402	585.37	540.33	212.33	726.3	959.26	-158.49	723.68	729.64	-207.38	389.53	44.392	85.364	483.14	1309.5	105.24	513.79	1051.6	237.04	543.95	1410.4	8.8784	483.8	974.38	-96.447	490.59	776.48	-335.16	615.34	1559.5	-68.481	424.61	28.103	92.301	458.98	972.3	36.284	254.48	159.52	130.78	552.22	1072.7	319.11	597.88	625.64	226.7	314.96	149.44	176.8	622.51	705.66	238.98	481.05	286.65	190.65	430.79	212.17	129.75	501.4	210.73	192.8	522.05	815.45	-283.5	559.42	327.56	129.13	339.51	149.37	94.063	726.64	72.807	-28.062	493	1077.9	-3.6545	649.62	844.86	298.75	664.61	29.423	-74.833	518.77	1034.3	-170.38
